<mxfile host="Electron" agent="Mozilla/5.0 (Windows NT 10.0; Win64; x64) AppleWebKit/537.36 (KHTML, like Gecko) draw.io/28.0.6 Chrome/138.0.7204.100 Electron/37.2.3 Safari/537.36" version="28.0.6">
  <diagram name="Page-1" id="CZb7sZh2YVaQq8lm5aDl">
    <mxGraphModel dx="1884" dy="946" grid="1" gridSize="10" guides="1" tooltips="1" connect="1" arrows="1" fold="1" page="0" pageScale="1" pageWidth="1169" pageHeight="1654" background="none" math="0" shadow="0" adaptiveColors="auto">
      <root>
        <mxCell id="0" />
        <mxCell id="1" parent="0" />
        <mxCell id="sjuQyyNppAannofEg8Kg-65" value="" style="rounded=1;whiteSpace=wrap;html=1;fillColor=none;dashed=1;strokeColor=#3399FF;" parent="1" vertex="1">
          <mxGeometry x="110" y="170" width="820" height="390" as="geometry" />
        </mxCell>
        <mxCell id="sjuQyyNppAannofEg8Kg-68" value="" style="rounded=1;whiteSpace=wrap;html=1;fillColor=none;dashed=1;strokeColor=light-dark(#000000,#DDDF63);fontColor=light-dark(#000000,#BBBBBB);" parent="1" vertex="1">
          <mxGeometry x="65" y="680" width="930" height="200" as="geometry" />
        </mxCell>
        <mxCell id="sjuQyyNppAannofEg8Kg-1" value="&lt;font style=&quot;font-size: 22px;&quot; color=&quot;#000000&quot;&gt;crm_cust_info&lt;/font&gt;" style="swimlane;fontStyle=0;childLayout=stackLayout;horizontal=1;startSize=30;horizontalStack=0;resizeParent=1;resizeParentMax=0;resizeLast=0;collapsible=1;marginBottom=0;whiteSpace=wrap;html=1;strokeColor=#0e8088;fillColor=#b0e3e6;gradientDirection=east;fillStyle=solid;rounded=1;swimlaneLine=0;" parent="1" vertex="1">
          <mxGeometry x="177.5" y="410" width="180" height="120" as="geometry" />
        </mxCell>
        <mxCell id="sjuQyyNppAannofEg8Kg-36" value="&lt;span style=&quot;font-size: 18px;&quot;&gt;cst_id&lt;/span&gt;" style="text;strokeColor=none;fillColor=none;align=left;verticalAlign=middle;spacingLeft=4;spacingRight=4;overflow=hidden;points=[[0,0.5],[1,0.5]];portConstraint=eastwest;rotatable=0;whiteSpace=wrap;html=1;rounded=1;" parent="sjuQyyNppAannofEg8Kg-1" vertex="1">
          <mxGeometry y="30" width="180" height="30" as="geometry" />
        </mxCell>
        <mxCell id="sjuQyyNppAannofEg8Kg-2" value="&lt;span style=&quot;font-size: 18px;&quot;&gt;cst_key&lt;/span&gt;" style="text;strokeColor=none;fillColor=none;align=left;verticalAlign=middle;spacingLeft=4;spacingRight=4;overflow=hidden;points=[[0,0.5],[1,0.5]];portConstraint=eastwest;rotatable=0;whiteSpace=wrap;html=1;rounded=1;" parent="sjuQyyNppAannofEg8Kg-1" vertex="1">
          <mxGeometry y="60" width="180" height="30" as="geometry" />
        </mxCell>
        <mxCell id="EPH_uGeJ69tWTW4rnwOy-6" value="&lt;span style=&quot;font-size: 20px;&quot;&gt;Customer&lt;/span&gt;" style="text;html=1;strokeColor=#82b366;fillColor=#d5e8d4;align=center;verticalAlign=middle;whiteSpace=wrap;overflow=hidden;rounded=1;gradientColor=#97d077;" vertex="1" parent="sjuQyyNppAannofEg8Kg-1">
          <mxGeometry y="90" width="180" height="30" as="geometry" />
        </mxCell>
        <mxCell id="sjuQyyNppAannofEg8Kg-7" value="&lt;font style=&quot;font-size: 18px;&quot;&gt;Customer informations&lt;/font&gt;" style="text;html=1;align=center;verticalAlign=middle;whiteSpace=wrap;rounded=1;" parent="1" vertex="1">
          <mxGeometry x="140" y="360" width="262.5" height="50" as="geometry" />
        </mxCell>
        <mxCell id="sjuQyyNppAannofEg8Kg-14" value="&lt;font style=&quot;font-size: 22px;&quot; color=&quot;#000000&quot;&gt;crm_prd_info&lt;/font&gt;" style="swimlane;fontStyle=0;childLayout=stackLayout;horizontal=1;startSize=30;horizontalStack=0;resizeParent=1;resizeParentMax=0;resizeLast=0;collapsible=1;marginBottom=0;whiteSpace=wrap;html=1;strokeColor=#0e8088;fillColor=#b0e3e6;gradientDirection=east;fillStyle=solid;rounded=1;swimlaneLine=0;" parent="1" vertex="1">
          <mxGeometry x="607.5" y="430" width="180" height="91" as="geometry" />
        </mxCell>
        <mxCell id="sjuQyyNppAannofEg8Kg-17" value="&lt;span style=&quot;font-size: 18px;&quot;&gt;cat_id&lt;span style=&quot;white-space: pre;&quot;&gt;&#x9;&lt;/span&gt;&lt;/span&gt;" style="text;strokeColor=none;fillColor=none;align=left;verticalAlign=middle;spacingLeft=4;spacingRight=4;overflow=hidden;points=[[0,0.5],[1,0.5]];portConstraint=eastwest;rotatable=0;whiteSpace=wrap;html=1;rounded=1;" parent="sjuQyyNppAannofEg8Kg-14" vertex="1">
          <mxGeometry y="30" width="180" height="30" as="geometry" />
        </mxCell>
        <mxCell id="EPH_uGeJ69tWTW4rnwOy-2" value="&lt;span style=&quot;font-size: 20px;&quot;&gt;Product&lt;/span&gt;" style="text;html=1;strokeColor=#6c8ebf;fillColor=#dae8fc;align=center;verticalAlign=middle;whiteSpace=wrap;overflow=hidden;rounded=1;gradientColor=#7ea6e0;" vertex="1" parent="sjuQyyNppAannofEg8Kg-14">
          <mxGeometry y="60" width="180" height="31" as="geometry" />
        </mxCell>
        <mxCell id="sjuQyyNppAannofEg8Kg-16" value="&lt;font style=&quot;font-size: 18px;&quot;&gt;information about product&lt;/font&gt;" style="text;html=1;align=center;verticalAlign=middle;whiteSpace=wrap;rounded=1;" parent="1" vertex="1">
          <mxGeometry x="597.5" y="380" width="200" height="50" as="geometry" />
        </mxCell>
        <mxCell id="sjuQyyNppAannofEg8Kg-25" value="&lt;font style=&quot;font-size: 22px;&quot; color=&quot;#000000&quot;&gt;crm_sales_details&lt;/font&gt;" style="swimlane;fontStyle=0;childLayout=stackLayout;horizontal=1;startSize=30;horizontalStack=0;resizeParent=1;resizeParentMax=0;resizeLast=0;collapsible=1;marginBottom=0;whiteSpace=wrap;html=1;strokeColor=#0e8088;fillColor=#b0e3e6;gradientDirection=east;fillStyle=solid;rounded=1;swimlaneLine=0;" parent="1" vertex="1">
          <mxGeometry x="427.5" y="220" width="180" height="120" as="geometry" />
        </mxCell>
        <mxCell id="sjuQyyNppAannofEg8Kg-26" value="&lt;span style=&quot;font-size: 18px;&quot;&gt;sls_prd_key&lt;/span&gt;" style="text;strokeColor=none;fillColor=none;align=left;verticalAlign=middle;spacingLeft=4;spacingRight=4;overflow=hidden;points=[[0,0.5],[1,0.5]];portConstraint=eastwest;rotatable=0;whiteSpace=wrap;html=1;rounded=1;" parent="sjuQyyNppAannofEg8Kg-25" vertex="1">
          <mxGeometry y="30" width="180" height="30" as="geometry" />
        </mxCell>
        <mxCell id="sjuQyyNppAannofEg8Kg-27" value="&lt;span style=&quot;font-size: 18px;&quot;&gt;sls_cust_id&lt;/span&gt;" style="text;strokeColor=none;fillColor=none;align=left;verticalAlign=middle;spacingLeft=4;spacingRight=4;overflow=hidden;points=[[0,0.5],[1,0.5]];portConstraint=eastwest;rotatable=0;whiteSpace=wrap;html=1;rounded=1;" parent="sjuQyyNppAannofEg8Kg-25" vertex="1">
          <mxGeometry y="60" width="180" height="30" as="geometry" />
        </mxCell>
        <mxCell id="EPH_uGeJ69tWTW4rnwOy-7" value="&lt;span style=&quot;font-size: 20px;&quot;&gt;Sales&lt;/span&gt;" style="text;html=1;strokeColor=#996185;fillColor=#e6d0de;align=center;verticalAlign=middle;whiteSpace=wrap;overflow=hidden;rounded=1;gradientColor=#d5739d;" vertex="1" parent="sjuQyyNppAannofEg8Kg-25">
          <mxGeometry y="90" width="180" height="30" as="geometry" />
        </mxCell>
        <mxCell id="sjuQyyNppAannofEg8Kg-28" value="&lt;span style=&quot;font-size: 18px;&quot;&gt;Sales Information&amp;nbsp;&lt;/span&gt;" style="text;html=1;align=center;verticalAlign=middle;whiteSpace=wrap;rounded=1;" parent="1" vertex="1">
          <mxGeometry x="390" y="170" width="262.5" height="50" as="geometry" />
        </mxCell>
        <mxCell id="sjuQyyNppAannofEg8Kg-32" value="&lt;font style=&quot;font-size: 22px;&quot;&gt;erp_cust_az12&lt;/font&gt;" style="swimlane;fontStyle=0;childLayout=stackLayout;horizontal=1;startSize=30;horizontalStack=0;resizeParent=1;resizeParentMax=0;resizeLast=0;collapsible=1;marginBottom=0;whiteSpace=wrap;html=1;strokeColor=#d6b656;fillColor=#fff2cc;gradientDirection=east;fillStyle=solid;rounded=1;swimlaneLine=0;fontColor=light-dark(#000000,#BBBBBB);" parent="1" vertex="1">
          <mxGeometry x="112.5" y="740" width="180" height="90" as="geometry" />
        </mxCell>
        <mxCell id="sjuQyyNppAannofEg8Kg-33" value="&lt;span style=&quot;font-size: 18px;&quot;&gt;cid&lt;/span&gt;" style="text;strokeColor=none;fillColor=none;align=left;verticalAlign=middle;spacingLeft=4;spacingRight=4;overflow=hidden;points=[[0,0.5],[1,0.5]];portConstraint=eastwest;rotatable=0;whiteSpace=wrap;html=1;rounded=1;fontColor=light-dark(#000000,#BBBBBB);" parent="sjuQyyNppAannofEg8Kg-32" vertex="1">
          <mxGeometry y="30" width="180" height="30" as="geometry" />
        </mxCell>
        <mxCell id="EPH_uGeJ69tWTW4rnwOy-5" value="&lt;span style=&quot;font-size: 20px;&quot;&gt;Customer&lt;/span&gt;" style="text;html=1;strokeColor=#82b366;fillColor=#d5e8d4;align=center;verticalAlign=middle;whiteSpace=wrap;overflow=hidden;rounded=1;gradientColor=#97d077;" vertex="1" parent="sjuQyyNppAannofEg8Kg-32">
          <mxGeometry y="60" width="180" height="30" as="geometry" />
        </mxCell>
        <mxCell id="sjuQyyNppAannofEg8Kg-34" value="&lt;font style=&quot;font-size: 18px;&quot;&gt;Customer informations&lt;/font&gt;" style="text;html=1;align=center;verticalAlign=middle;whiteSpace=wrap;rounded=1;fontColor=light-dark(#000000,#BBBBBB);" parent="1" vertex="1">
          <mxGeometry x="102.5" y="700" width="200" height="50" as="geometry" />
        </mxCell>
        <mxCell id="sjuQyyNppAannofEg8Kg-48" value="&lt;font style=&quot;font-size: 22px;&quot;&gt;erp_loc_a101&lt;/font&gt;" style="swimlane;fontStyle=0;childLayout=stackLayout;horizontal=1;startSize=30;horizontalStack=0;resizeParent=1;resizeParentMax=0;resizeLast=0;collapsible=1;marginBottom=0;whiteSpace=wrap;html=1;strokeColor=#d6b656;fillColor=#fff2cc;gradientDirection=east;fillStyle=solid;rounded=1;swimlaneLine=0;fontColor=light-dark(#000000,#BBBBBB);" parent="1" vertex="1">
          <mxGeometry x="400" y="765" width="180" height="90" as="geometry" />
        </mxCell>
        <mxCell id="sjuQyyNppAannofEg8Kg-49" value="&lt;span style=&quot;font-size: 18px;&quot;&gt;cid&lt;/span&gt;" style="text;strokeColor=none;fillColor=none;align=left;verticalAlign=middle;spacingLeft=4;spacingRight=4;overflow=hidden;points=[[0,0.5],[1,0.5]];portConstraint=eastwest;rotatable=0;whiteSpace=wrap;html=1;rounded=1;fontColor=light-dark(#000000,#BBBBBB);" parent="sjuQyyNppAannofEg8Kg-48" vertex="1">
          <mxGeometry y="30" width="180" height="30" as="geometry" />
        </mxCell>
        <mxCell id="EPH_uGeJ69tWTW4rnwOy-4" value="&lt;span style=&quot;font-size: 20px;&quot;&gt;Customer&lt;/span&gt;" style="text;html=1;strokeColor=#82b366;fillColor=#d5e8d4;align=center;verticalAlign=middle;whiteSpace=wrap;overflow=hidden;rounded=1;gradientColor=#97d077;" vertex="1" parent="sjuQyyNppAannofEg8Kg-48">
          <mxGeometry y="60" width="180" height="30" as="geometry" />
        </mxCell>
        <mxCell id="sjuQyyNppAannofEg8Kg-50" value="&lt;span style=&quot;font-size: 18px;&quot;&gt;Customer&amp;nbsp; location&lt;/span&gt;" style="text;html=1;align=center;verticalAlign=middle;whiteSpace=wrap;rounded=1;fontColor=light-dark(#000000,#BBBBBB);" parent="1" vertex="1">
          <mxGeometry x="390" y="715" width="200" height="50" as="geometry" />
        </mxCell>
        <mxCell id="sjuQyyNppAannofEg8Kg-57" style="edgeStyle=orthogonalEdgeStyle;rounded=1;orthogonalLoop=1;jettySize=auto;html=1;entryX=1;entryY=0.5;entryDx=0;entryDy=0;" parent="1" source="sjuQyyNppAannofEg8Kg-52" target="sjuQyyNppAannofEg8Kg-17" edge="1">
          <mxGeometry relative="1" as="geometry" />
        </mxCell>
        <mxCell id="sjuQyyNppAannofEg8Kg-52" value="&lt;font style=&quot;font-size: 22px;&quot;&gt;erp_px_cat_g1v2&lt;/font&gt;" style="swimlane;fontStyle=0;childLayout=stackLayout;horizontal=1;startSize=30;horizontalStack=0;resizeParent=1;resizeParentMax=0;resizeLast=0;collapsible=1;marginBottom=0;whiteSpace=wrap;html=1;strokeColor=#d6b656;fillColor=#fff2cc;gradientDirection=east;fillStyle=solid;rounded=1;swimlaneLine=0;fontColor=light-dark(#000000,#BBBBBB);" parent="1" vertex="1">
          <mxGeometry x="755" y="740" width="210" height="90" as="geometry" />
        </mxCell>
        <mxCell id="sjuQyyNppAannofEg8Kg-53" value="&lt;span style=&quot;font-size: 18px;&quot;&gt;id&lt;/span&gt;" style="text;strokeColor=none;fillColor=none;align=left;verticalAlign=middle;spacingLeft=4;spacingRight=4;overflow=hidden;points=[[0,0.5],[1,0.5]];portConstraint=eastwest;rotatable=0;whiteSpace=wrap;html=1;rounded=1;fontColor=light-dark(#000000,#BBBBBB);" parent="sjuQyyNppAannofEg8Kg-52" vertex="1">
          <mxGeometry y="30" width="210" height="30" as="geometry" />
        </mxCell>
        <mxCell id="EPH_uGeJ69tWTW4rnwOy-1" value="&lt;span style=&quot;font-size: 20px;&quot;&gt;Product&lt;/span&gt;" style="text;html=1;strokeColor=#6c8ebf;fillColor=#dae8fc;align=center;verticalAlign=middle;whiteSpace=wrap;overflow=hidden;rounded=1;gradientColor=#7ea6e0;fontColor=light-dark(#000000,#BBBBBB);" vertex="1" parent="sjuQyyNppAannofEg8Kg-52">
          <mxGeometry y="60" width="210" height="30" as="geometry" />
        </mxCell>
        <mxCell id="sjuQyyNppAannofEg8Kg-54" value="&lt;span style=&quot;font-size: 18px;&quot;&gt;Product categories&lt;/span&gt;" style="text;html=1;align=center;verticalAlign=middle;whiteSpace=wrap;rounded=1;fontColor=light-dark(#000000,#BBBBBB);" parent="1" vertex="1">
          <mxGeometry x="755" y="690" width="210" height="50" as="geometry" />
        </mxCell>
        <mxCell id="sjuQyyNppAannofEg8Kg-59" style="edgeStyle=orthogonalEdgeStyle;rounded=1;orthogonalLoop=1;jettySize=auto;html=1;entryX=1;entryY=0.5;entryDx=0;entryDy=0;" parent="1" source="sjuQyyNppAannofEg8Kg-49" target="sjuQyyNppAannofEg8Kg-2" edge="1">
          <mxGeometry relative="1" as="geometry" />
        </mxCell>
        <mxCell id="sjuQyyNppAannofEg8Kg-60" style="edgeStyle=orthogonalEdgeStyle;rounded=1;orthogonalLoop=1;jettySize=auto;html=1;entryX=0;entryY=0.5;entryDx=0;entryDy=0;" parent="1" source="sjuQyyNppAannofEg8Kg-33" target="sjuQyyNppAannofEg8Kg-2" edge="1">
          <mxGeometry relative="1" as="geometry">
            <mxPoint x="60" y="480" as="targetPoint" />
          </mxGeometry>
        </mxCell>
        <mxCell id="sjuQyyNppAannofEg8Kg-61" style="edgeStyle=orthogonalEdgeStyle;rounded=1;orthogonalLoop=1;jettySize=auto;html=1;entryX=0;entryY=0.5;entryDx=0;entryDy=0;" parent="1" source="sjuQyyNppAannofEg8Kg-26" target="sjuQyyNppAannofEg8Kg-17" edge="1">
          <mxGeometry relative="1" as="geometry" />
        </mxCell>
        <mxCell id="sjuQyyNppAannofEg8Kg-63" style="edgeStyle=orthogonalEdgeStyle;rounded=1;orthogonalLoop=1;jettySize=auto;html=1;entryX=1;entryY=0.5;entryDx=0;entryDy=0;" parent="1" source="sjuQyyNppAannofEg8Kg-27" target="sjuQyyNppAannofEg8Kg-36" edge="1">
          <mxGeometry relative="1" as="geometry" />
        </mxCell>
        <mxCell id="sjuQyyNppAannofEg8Kg-64" value="&lt;b&gt;&lt;font style=&quot;font-size: 24px;&quot; face=&quot;Times New Roman&quot;&gt;Integration Model :&lt;/font&gt;&lt;/b&gt;&lt;div&gt;&lt;font style=&quot;&quot; face=&quot;Times New Roman&quot;&gt;&lt;span style=&quot;font-size: 20px; white-space: pre;&quot;&gt;&#x9;&lt;/span&gt;&lt;font style=&quot;font-size: 18px;&quot;&gt;How&amp;nbsp; tables are related&lt;/font&gt;&lt;/font&gt;&lt;/div&gt;" style="text;html=1;align=left;verticalAlign=middle;whiteSpace=wrap;rounded=1;" parent="1" vertex="1">
          <mxGeometry x="22.5" y="30" width="305" height="60" as="geometry" />
        </mxCell>
        <mxCell id="sjuQyyNppAannofEg8Kg-66" value="&lt;font style=&quot;color: rgb(0, 0, 0); font-size: 20px;&quot;&gt;&lt;b&gt;CRM&lt;/b&gt;&lt;/font&gt;" style="rounded=1;whiteSpace=wrap;html=1;fillColor=#dae8fc;strokeColor=#6c8ebf;" parent="1" vertex="1">
          <mxGeometry x="178.75" y="140" width="138.75" height="50" as="geometry" />
        </mxCell>
        <mxCell id="sjuQyyNppAannofEg8Kg-70" value="&lt;font style=&quot;color: rgb(0, 0, 0); font-size: 20px;&quot;&gt;&lt;b&gt;ERP&lt;/b&gt;&lt;/font&gt;" style="rounded=1;whiteSpace=wrap;html=1;fillColor=#fff2cc;strokeColor=#d6b656;" parent="1" vertex="1">
          <mxGeometry x="597.5" y="660" width="138.75" height="50" as="geometry" />
        </mxCell>
      </root>
    </mxGraphModel>
  </diagram>
</mxfile>
